<svg xmlns="http://www.w3.org/2000/svg" xmlns:xlink="http://www.w3.org/1999/xlink" width="38cm" height="33cm" viewBox="359 779 758 642"><g><rect width="500" height="640" x="400" y="780" style="fill:#fff"/><rect width="500" height="640" x="400" y="780" style="fill:none;fill-opacity:0;stroke-width:2;stroke:#000"/></g><g><rect width="120" height="160" x="460" y="820" style="fill:#fff"/><rect width="120" height="160" x="460" y="820" style="fill:none;fill-opacity:0;stroke-width:2;stroke:#000"/></g><g><rect width="80" height="120" x="480" y="860" style="fill:#fff"/><rect width="80" height="120" x="480" y="860" style="fill:none;fill-opacity:0;stroke-width:2;stroke:#000"/></g><text x="520" y="844.431" font-size="12.8" style="fill:#000;text-anchor:middle;font-family:sans-serif;font-style:normal;font-weight:400"><tspan x="520" y="844.431">LUT6</tspan></text><text x="520" y="884.245" font-size="12.8" style="fill:#000;text-anchor:middle;font-family:sans-serif;font-style:normal;font-weight:400"><tspan x="520" y="884.245">LUT5</tspan></text><line x1="480" x2="360" y1="940" y2="940" style="fill:none;fill-opacity:0;stroke-width:2;stroke:#000"/><line x1="480" x2="360" y1="920" y2="920" style="fill:none;fill-opacity:0;stroke-width:2;stroke-dasharray:4;stroke:green"/><line x1="480" x2="360" y1="900" y2="900" style="fill:none;fill-opacity:0;stroke-width:2;stroke:#000"/><line x1="480" x2="360" y1="880" y2="880" style="fill:none;fill-opacity:0;stroke-width:2;stroke:#000"/><line x1="480" x2="360" y1="960" y2="960" style="fill:none;fill-opacity:0;stroke-width:2;stroke:#000"/><line x1="460" x2="360" y1="840" y2="840" style="fill:none;fill-opacity:0;stroke-width:2;stroke:#000"/><g><rect width="80" height="80" x="720" y="900" style="fill:#90ee90"/><rect width="80" height="80" x="720" y="900" style="fill:none;fill-opacity:0;stroke-width:2;stroke:green"/></g><text x="760" y="924.245" font-size="12.8" style="fill:#000;text-anchor:middle;font-family:sans-serif;font-style:normal;font-weight:400"><tspan x="760" y="924.245">DFF</tspan></text><line x1="580" x2="940" y1="840" y2="840" style="fill:none;fill-opacity:0;stroke-width:2;stroke:#000"/><g><polygon points="840 940 860 920 860 880 840 860" style="fill:#fff"/><polygon points="840 940 860 920 860 880 840 860" style="fill:none;fill-opacity:0;stroke-width:2;stroke:#000"/></g><line x1="700" x2="720" y1="940" y2="940" style="fill:none;fill-opacity:0;stroke-width:2;stroke-dasharray:4;stroke:green"/><line x1="640" x2="840" y1="880" y2="880" style="fill:none;fill-opacity:0;stroke-width:2;stroke:#000"/><g><polygon points="680 980 700 960 700 920 680 900" style="fill:#fff"/><polygon points="680 980 700 960 700 920 680 900" style="fill:none;fill-opacity:0;stroke-width:2;stroke:#000"/></g><polyline points="620 840 660 840 660 920 680 920" style="fill:none;fill-opacity:0;stroke-width:2;stroke:#000"/><polyline points="560 880 640 880 640 960 680 960" style="fill:none;fill-opacity:0;stroke-width:2;stroke-dasharray:4;stroke:green"/><line x1="860" x2="940" y1="900" y2="900" style="fill:none;fill-opacity:0;stroke-width:2;stroke-dasharray:4;stroke:green"/><line x1="800" x2="840" y1="920" y2="920" style="fill:none;fill-opacity:0;stroke-width:2;stroke-dasharray:4;stroke:green"/><g><rect width="120" height="160" x="460" y="1020" style="fill:#fff"/><rect width="120" height="160" x="460" y="1020" style="fill:none;fill-opacity:0;stroke-width:2;stroke:#000"/></g><g><rect width="80" height="120" x="480" y="1060" style="fill:#fff"/><rect width="80" height="120" x="480" y="1060" style="fill:none;fill-opacity:0;stroke-width:2;stroke:#000"/></g><text x="520" y="1044.43" font-size="12.8" style="fill:#000;text-anchor:middle;font-family:sans-serif;font-style:normal;font-weight:400"><tspan x="520" y="1044.43">LUT6</tspan></text><text x="520" y="1084.43" font-size="12.8" style="fill:#000;text-anchor:middle;font-family:sans-serif;font-style:normal;font-weight:400"><tspan x="520" y="1084.43">LUT5</tspan></text><line x1="480" x2="360" y1="1140" y2="1140" style="fill:none;fill-opacity:0;stroke-width:2;stroke:#000"/><line x1="480" x2="360" y1="1100" y2="1100" style="fill:none;fill-opacity:0;stroke-width:2;stroke:#000"/><line x1="480" x2="360" y1="1120" y2="1120" style="fill:none;fill-opacity:0;stroke-width:2;stroke-dasharray:10 4 2 4;stroke:red"/><line x1="480" x2="360" y1="1080" y2="1080" style="fill:none;fill-opacity:0;stroke-width:2;stroke:#000"/><line x1="480" x2="360" y1="1160" y2="1160" style="fill:none;fill-opacity:0;stroke-width:2;stroke:#000"/><line x1="460" x2="360" y1="1040" y2="1040" style="fill:none;fill-opacity:0;stroke-width:2;stroke:#000"/><g><rect width="80" height="80" x="720" y="1100" style="fill:#fff"/><rect width="80" height="80" x="720" y="1100" style="fill:none;fill-opacity:0;stroke-width:2;stroke:#000"/></g><text x="760" y="1124.43" font-size="12.8" style="fill:#000;text-anchor:middle;font-family:sans-serif;font-style:normal;font-weight:400"><tspan x="760" y="1124.43">DFF</tspan></text><line x1="580" x2="940" y1="1040" y2="1040" style="fill:none;fill-opacity:0;stroke-width:2;stroke:#000"/><g><polygon points="840 1140 860 1120 860 1080 840 1060" style="fill:#fff"/><polygon points="840 1140 860 1120 860 1080 840 1060" style="fill:none;fill-opacity:0;stroke-width:2;stroke:#000"/></g><line x1="700" x2="720" y1="1140" y2="1140" style="fill:none;fill-opacity:0;stroke-width:2;stroke:#000"/><line x1="560" x2="840" y1="1080" y2="1080" style="fill:none;fill-opacity:0;stroke-width:2;stroke-dasharray:10 4 2 4;stroke:red"/><g><polygon points="680 1180 700 1160 700 1120 680 1100" style="fill:#fff"/><polygon points="680 1180 700 1160 700 1120 680 1100" style="fill:none;fill-opacity:0;stroke-width:2;stroke:#000"/></g><polyline points="620 1040 660 1040 660 1120 680 1120" style="fill:none;fill-opacity:0;stroke-width:2;stroke:#000"/><polyline points="640 1080 640 1080 640 1160 680 1160" style="fill:none;fill-opacity:0;stroke-width:2;stroke:#000"/><line x1="860" x2="940" y1="1100" y2="1100" style="fill:none;fill-opacity:0;stroke-width:2;stroke-dasharray:10 4 2 4;stroke:red"/><line x1="800" x2="840" y1="1120" y2="1120" style="fill:none;fill-opacity:0;stroke-width:2;stroke:#000"/><g><rect width="120" height="160" x="460" y="1220" style="fill:#90ee90"/><rect width="120" height="160" x="460" y="1220" style="fill:none;fill-opacity:0;stroke-width:2;stroke:green"/></g><g><rect width="80" height="120" x="480" y="1260" style="fill:#fff"/><rect width="80" height="120" x="480" y="1260" style="fill:none;fill-opacity:0;stroke-width:2;stroke:#000"/></g><text x="520" y="1244.43" font-size="12.8" style="fill:#000;text-anchor:middle;font-family:sans-serif;font-style:normal;font-weight:400"><tspan x="520" y="1244.43">LUT6</tspan></text><text x="520" y="1284.43" font-size="12.8" style="fill:#000;text-anchor:middle;font-family:sans-serif;font-style:normal;font-weight:400"><tspan x="520" y="1284.43">LUT5</tspan></text><line x1="480" x2="360" y1="1340" y2="1340" style="fill:none;fill-opacity:0;stroke-width:2;stroke:#000"/><line x1="460" x2="360" y1="1320" y2="1320" style="fill:none;fill-opacity:0;stroke-width:2;stroke-dasharray:4;stroke:green"/><line x1="480" x2="360" y1="1300" y2="1300" style="fill:none;fill-opacity:0;stroke-width:2;stroke:#000"/><line x1="480" x2="360" y1="1280" y2="1280" style="fill:none;fill-opacity:0;stroke-width:2;stroke:#000"/><line x1="480" x2="360" y1="1360" y2="1360" style="fill:none;fill-opacity:0;stroke-width:2;stroke:#000"/><line x1="460" x2="360" y1="1240" y2="1240" style="fill:none;fill-opacity:0;stroke-width:2;stroke:#000"/><g><rect width="80" height="80" x="720" y="1300" style="fill:#fff"/><rect width="80" height="80" x="720" y="1300" style="fill:none;fill-opacity:0;stroke-width:2;stroke:#000"/></g><text x="760" y="1324.43" font-size="12.8" style="fill:#000;text-anchor:middle;font-family:sans-serif;font-style:normal;font-weight:400"><tspan x="760" y="1324.43">DFF</tspan></text><line x1="580" x2="940" y1="1240" y2="1240" style="fill:none;fill-opacity:0;stroke-width:2;stroke-dasharray:4;stroke:green"/><g><polygon points="840 1340 860 1320 860 1280 840 1260" style="fill:#fff"/><polygon points="840 1340 860 1320 860 1280 840 1260" style="fill:none;fill-opacity:0;stroke-width:2;stroke:#000"/></g><line x1="700" x2="720" y1="1340" y2="1340" style="fill:none;fill-opacity:0;stroke-width:2;stroke:#000"/><line x1="560" x2="840" y1="1280" y2="1280" style="fill:none;fill-opacity:0;stroke-width:2;stroke-dasharray:10 4 2 4;stroke:red"/><g><polygon points="680 1380 700 1360 700 1320 680 1300" style="fill:#fff"/><polygon points="680 1380 700 1360 700 1320 680 1300" style="fill:none;fill-opacity:0;stroke-width:2;stroke:#000"/></g><polyline points="660 1240 660 1240 660 1320 680 1320" style="fill:none;fill-opacity:0;stroke-width:2;stroke:#000"/><polyline points="640 1280 640 1280 640 1360 680 1360" style="fill:none;fill-opacity:0;stroke-width:2;stroke:#000"/><line x1="860" x2="940" y1="1300" y2="1300" style="fill:none;fill-opacity:0;stroke-width:2;stroke-dasharray:20 8 4 8;stroke:red"/><line x1="800" x2="840" y1="1320" y2="1320" style="fill:none;fill-opacity:0;stroke-width:2;stroke:#000"/><line x1="480" x2="560" y1="920" y2="880" style="fill:none;fill-opacity:0;stroke-width:2;stroke-dasharray:4;stroke:green"/><line x1="680" x2="700" y1="960" y2="940" style="fill:none;fill-opacity:0;stroke-width:2;stroke-dasharray:4;stroke:green"/><line x1="840" x2="860" y1="920" y2="900" style="fill:none;fill-opacity:0;stroke-width:2;stroke-dasharray:4;stroke:green"/><text x="940" y="940" font-size="12.8" style="fill:#000;text-anchor:start;font-family:sans-serif;font-style:normal;font-weight:400"><tspan x="940" y="940">Legal - site routing</tspan> <tspan x="940" y="956">used to access DFF</tspan> <tspan x="940" y="972">input and output</tspan></text><text x="940" y="1120" font-size="12.8" style="fill:#000;text-anchor:start;font-family:sans-serif;font-style:normal;font-weight:400"><tspan x="940" y="1120">Illegal - not being</tspan> <tspan x="940" y="1136">used to access bound</tspan> <tspan x="940" y="1152">bel inside site; tile PIP</tspan> <tspan x="940" y="1168">should be used instead</tspan></text><line x1="480" x2="560" y1="1120" y2="1080" style="fill:none;fill-opacity:0;stroke-width:2;stroke-dasharray:10 4 2 4;stroke:red"/><line x1="840" x2="860" y1="1080" y2="1100" style="fill:none;fill-opacity:0;stroke-width:2;stroke-dasharray:10 4 2 4;stroke:red"/><text x="940" y="1320" font-size="12.8" style="fill:#000;text-anchor:start;font-family:sans-serif;font-style:normal;font-weight:400"><tspan x="940" y="1320">Illegal - red dashed</tspan> <tspan x="940" y="1336">part not being used to</tspan> <tspan x="940" y="1352">access bound bel inside</tspan> <tspan x="940" y="1368">site; tile PIP should be used</tspan> <tspan x="940" y="1384">instead for that part</tspan></text><line x1="480" x2="560" y1="1320" y2="1280" style="fill:none;fill-opacity:0;stroke-width:2;stroke-dasharray:10 4 2 4;stroke:red"/><line x1="480" x2="460" y1="1320" y2="1320" style="fill:none;fill-opacity:0;stroke-width:2;stroke-dasharray:10 4 2 4;stroke:red"/><line x1="840" x2="860" y1="1280" y2="1300" style="fill:none;fill-opacity:0;stroke-width:2;stroke-dasharray:10 4 2 4;stroke:red"/></svg>